<svg id="Layer_1" data-name="Layer 1" xmlns="http://www.w3.org/2000/svg" viewBox="0 0 171.81 193.71"><path d="M128.74,102.12a9.57,9.57,0,0,0-6.13-9.24,2.18,2.18,0,0,1-1.51-2.41c0-5,.16-10-.35-15-1-10.31-10.35-18.26-21-18.35s-20.1,8-21.17,18.36c-.52,5-.23,10.13-.42,15.2a2.63,2.63,0,0,1-1.12,2,10.14,10.14,0,0,0-6.46,9.9c0,7.7-.07,15.42,0,23.14.05,6.41,4.23,10.51,10.6,10.54,6.16,0,12.32,0,18.48,0s12.32,0,18.48,0,10.47-4,10.58-10.15C128.88,118.09,128.83,110.1,128.74,102.12ZM109.4,91.9H90.17A6.27,6.27,0,0,1,90,90.75c0-4-.06-8.1,0-12.15a9.72,9.72,0,1,1,19.44,0C109.45,82.94,109.4,87.33,109.4,91.9Z" transform="translate(-13.76 -2.77)"/><path d="M138.92,33.53Q129,38.41,119,43.11a5.81,5.81,0,0,1-8-2.61c-1.48-3-.23-6.33,3-8,2.29-1.15,4.63-2.25,6.92-3.38.1,0,.14-.22.47-.82-5.06-.88-9.9-2.09-14.82-2.52C75.71,23,47.05,38.76,33.35,66.64c-11.55,23.5-10.51,47,2,70a10.78,10.78,0,0,1,1.42,4.92,5.41,5.41,0,0,1-4.53,5,5.9,5.9,0,0,1-6.33-3,84.54,84.54,0,0,1-9.51-22.74A86,86,0,0,1,66.36,20.47a84.41,84.41,0,0,1,55-3.87c.4.1.79.19,1.2.27.12,0,.26,0,.73,0-1-1.81-2-3.43-2.88-5.09-1.71-3.19-.79-6.63,2.15-8.24a5.82,5.82,0,0,1,8,2.5c3.67,6.3,7.33,12.64,10.92,19C143.43,28.38,142.39,31.82,138.92,33.53Z" transform="translate(-13.76 -2.77)"/><path d="M119.74,183.11a84.42,84.42,0,0,1-42-.52c-.5-.14-1-.2-1.87-.38,1.11,1.93,2.06,3.54,3,5.18,1.74,3.2.9,6.6-2,8.3s-6.29.64-8.14-2.53q-5.46-9.37-10.83-18.81c-2-3.56-.9-7,2.81-8.79q9.57-4.65,19.19-9.21c3.58-1.71,7-.67,8.46,2.51s.09,6.3-3.37,8c-2.3,1.12-4.59,2.22-6.88,3.32,0,.25,0,.49,0,.73,4.85.85,9.68,2.14,14.57,2.5,28.06,2,51.16-7.94,67.33-30.95,17.83-25.39,18.57-52.41,4-79.85a11.46,11.46,0,0,1-1.5-4.71,5.74,5.74,0,0,1,10.73-2.46c2.65,5.16,5.48,10.3,7.43,15.74C197.65,118.91,169,171.39,119.74,183.11Z" transform="translate(-13.76 -2.77)"/></svg>